<svg width="250" height="250" viewBox="0 0 250 250" fill="none" xmlns="http://www.w3.org/2000/svg">
<rect width="250" height="250" rx="45" fill="white"/>
<path fill-rule="evenodd" clip-rule="evenodd" d="M131.413 24.2367C128.759 24.9128 115.533 28.0733 102.022 31.2622C51.6504 43.1487 51.7311 43.1266 49.8204 45.573C47.9218 48.0053 47.5402 52.0072 48.9544 54.6693C49.9405 56.5245 92.8071 87.0994 96.3997 88.5091C98.579 89.3646 115.309 85.8444 145.286 78.2223L152.83 76.3044L152.573 58.6633C152.208 33.5362 151.043 28.1617 145.187 24.5654C141.961 22.583 138.257 22.4946 131.413 24.2367ZM161.418 30.8123C160.367 31.7978 159.246 33.6529 158.928 34.9344C158.404 37.0353 159.225 74.1258 159.808 74.7135C159.942 74.8479 164.76 73.8014 170.516 72.3882C176.271 70.9741 187.298 68.3739 195.018 66.6097C211.096 62.9366 213.236 62.1933 212.846 60.4212C212.692 59.7168 202.909 52.3634 191.109 44.0802C173.002 31.37 169.16 29.0199 166.49 29.0199C164.525 29.0199 162.604 29.6987 161.418 30.8123ZM33.5496 62.0377C32.0793 62.7059 30.1457 64.3763 29.2525 65.7498C27.6874 68.1564 27.669 69.9692 28.7542 116.025C29.4517 145.63 30.2527 164.947 30.8589 166.811C32.2179 170.991 35.299 172.98 42.1956 174.132C47.6806 175.048 48.8781 174.922 58.8339 172.392C64.7339 170.892 73.3123 168.789 77.8962 167.72C82.4802 166.65 87.1765 165.413 88.3328 164.97L90.4348 164.165L89.8119 152.936C89.4698 146.76 88.882 131.491 88.5056 119.005C87.9415 100.303 87.5678 95.9129 86.3869 94.0975C84.1427 90.6471 42.4869 61.6886 39.0925 61.2193C37.5151 61.001 35.0209 61.3696 33.5496 62.0377ZM180.981 78.2391C169.883 80.91 160.542 83.3573 160.224 83.6772C159.906 83.9972 160.109 100.791 160.676 120.997C161.586 153.453 161.886 158.011 163.249 160.106C164.097 161.41 165.078 162.478 165.429 162.478C165.78 162.479 167.251 163.518 168.698 164.787C170.146 166.057 175.871 170.17 181.42 173.927C186.969 177.684 195.815 183.805 201.077 187.526C209.025 193.149 211.222 194.295 214.057 194.295C216.51 194.295 218.075 193.685 219.622 192.125C221.509 190.225 221.794 189.101 221.915 183.066C221.99 179.277 222.022 175.604 221.984 174.904C221.946 174.205 221.68 165.256 221.391 155.018C219.115 74.2415 219.547 78.3752 213.017 74.8576C208.36 72.3493 203.184 72.8955 180.981 78.2391ZM130.974 90.0735C121.323 92.4492 111.766 94.8443 109.736 95.3967C105.134 96.6465 99.5019 101.417 96.948 106.228C95.0723 109.761 95.0118 110.652 95.2311 131.543C95.4636 153.656 96.0453 163.634 97.0638 163.005C97.3788 162.811 99.215 162.405 101.145 162.105C103.075 161.804 105.855 161.165 107.321 160.684C108.789 160.204 112.54 159.248 115.656 158.559C118.773 157.87 125.271 156.439 130.097 155.377C142.852 152.572 148.678 148.574 152.585 139.94C154.392 135.946 154.655 126.092 153.646 100.309L153.07 85.5845L150.795 85.6694C149.544 85.7162 140.624 87.6977 130.974 90.0735ZM139.747 161.948C137.334 162.591 129.044 164.596 121.323 166.405C113.603 168.213 104.782 170.356 101.721 171.167L96.1549 172.641L96.7498 192.969C97.077 204.149 97.7411 214.864 98.2263 216.779C98.7123 218.693 100.416 221.577 102.014 223.187C105.849 227.051 108.059 227.001 126.669 222.625C178.059 210.542 186.956 208.34 189.305 207.115C194.405 204.459 196.223 196.639 192.769 192.214C191.774 190.94 184.766 185.486 177.196 180.096C169.628 174.706 160.687 168.279 157.329 165.815C150.444 160.762 147.021 160.009 139.747 161.948ZM84.0374 175.293C34.4489 187.069 34.0304 187.198 34.0304 190.736C34.0304 191.96 40.0988 196.716 55.5747 207.623C74.0992 220.679 77.5971 222.819 80.5352 222.896C82.7285 222.954 84.8305 222.331 86.4071 221.156C91.0077 217.725 91.1946 216.507 90.5235 194.309C90.1857 183.121 89.6733 174.007 89.3856 174.057C89.0978 174.107 86.6913 174.663 84.0374 175.293Z" fill="#5654E0"/>
</svg>
