<svg width="120" height="121" viewBox="0 0 120 121" fill="none" xmlns="http://www.w3.org/2000/svg">
<g filter="url(#filter0_d_2_874)">
<rect x="30" y="12" width="59.3734" height="61" rx="15" fill="white" shape-rendering="crispEdges"/>
<rect x="30.5" y="12.5" width="58.3734" height="60" rx="14.5" stroke="#E0E0E9" shape-rendering="crispEdges"/>
<path d="M67.9673 48.924C67.6195 49.7275 67.2078 50.4672 66.7308 51.1472C66.0805 52.0743 65.5481 52.716 65.1378 53.0724C64.5018 53.6573 63.8204 53.9568 63.0906 53.9739C62.5667 53.9739 61.935 53.8248 61.1996 53.5224C60.4617 53.2214 59.7837 53.0724 59.1637 53.0724C58.5135 53.0724 57.8161 53.2214 57.0702 53.5224C56.3231 53.8248 55.7213 53.9824 55.2612 53.998C54.5614 54.0278 53.8639 53.7197 53.1677 53.0724C52.7233 52.6848 52.1675 52.0204 51.5017 51.0791C50.7873 50.0739 50.1999 48.9084 49.7398 47.5795C49.247 46.1442 49 44.7543 49 43.4087C49 41.8673 49.3331 40.5379 50.0002 39.4238C50.5245 38.529 51.222 37.8231 52.095 37.3049C52.9679 36.7867 53.9112 36.5227 54.927 36.5058C55.4828 36.5058 56.2117 36.6777 57.1175 37.0156C58.0207 37.3546 58.6006 37.5265 58.8549 37.5265C59.045 37.5265 59.6893 37.3255 60.7815 36.9247C61.8143 36.5531 62.686 36.3992 63.4001 36.4598C65.3352 36.6159 66.789 37.3788 67.7558 38.753C66.0252 39.8016 65.1691 41.2703 65.1861 43.1544C65.2017 44.622 65.7341 45.8432 66.7804 46.8129C67.2546 47.2629 67.7842 47.6107 68.3734 47.8578C68.2456 48.2283 68.1107 48.5832 67.9673 48.924ZM63.5293 31.4601C63.5293 32.6104 63.1091 33.6844 62.2714 34.6785C61.2606 35.8602 60.038 36.5431 58.7121 36.4354C58.6952 36.2974 58.6854 36.1521 58.6854 35.9995C58.6854 34.8953 59.1661 33.7135 60.0198 32.7472C60.446 32.258 60.988 31.8512 61.6454 31.5267C62.3013 31.2071 62.9217 31.0303 63.5052 31C63.5222 31.1538 63.5293 31.3076 63.5293 31.4601V31.4601Z" fill="black"/>
</g>
<defs>
<filter id="filter0_d_2_874" x="0" y="0" width="119.373" height="121" filterUnits="userSpaceOnUse" color-interpolation-filters="sRGB">
<feFlood flood-opacity="0" result="BackgroundImageFix"/>
<feColorMatrix in="SourceAlpha" type="matrix" values="0 0 0 0 0 0 0 0 0 0 0 0 0 0 0 0 0 0 127 0" result="hardAlpha"/>
<feOffset dy="18"/>
<feGaussianBlur stdDeviation="15"/>
<feComposite in2="hardAlpha" operator="out"/>
<feColorMatrix type="matrix" values="0 0 0 0 0.266667 0 0 0 0 0.380392 0 0 0 0 0.94902 0 0 0 0.11 0"/>
<feBlend mode="normal" in2="BackgroundImageFix" result="effect1_dropShadow_2_874"/>
<feBlend mode="normal" in="SourceGraphic" in2="effect1_dropShadow_2_874" result="shape"/>
</filter>
</defs>
</svg>
