<svg width="122" height="121" viewBox="0 0 122 121" fill="none" xmlns="http://www.w3.org/2000/svg">
<g filter="url(#filter0_d_2_807)">
<rect x="30" y="12" width="61.1113" height="61" rx="15" fill="white" shape-rendering="crispEdges"/>
<rect x="30.5" y="12.5" width="60.1113" height="60" rx="14.5" stroke="#E0E0E9" shape-rendering="crispEdges"/>
<path d="M72.1113 42.5001C72.1113 36.1488 66.9626 31.0001 60.6113 31.0001C54.26 31.0001 49.1113 36.1488 49.1113 42.5001C49.1113 48.24 53.3167 52.9976 58.8145 53.8604V45.8243H55.8945V42.5001H58.8145V39.9665C58.8145 37.0843 60.5313 35.4922 63.1582 35.4922C64.4164 35.4922 65.7324 35.7169 65.7324 35.7169V38.5469H64.2823C62.8537 38.5469 62.4082 39.4334 62.4082 40.3428V42.5001H65.5977L65.0878 45.8243H62.4082V53.8604C67.9059 52.9976 72.1113 48.24 72.1113 42.5001Z" fill="#1877F2"/>
</g>
<defs>
<filter id="filter0_d_2_807" x="0" y="0" width="121.111" height="121" filterUnits="userSpaceOnUse" color-interpolation-filters="sRGB">
<feFlood flood-opacity="0" result="BackgroundImageFix"/>
<feColorMatrix in="SourceAlpha" type="matrix" values="0 0 0 0 0 0 0 0 0 0 0 0 0 0 0 0 0 0 127 0" result="hardAlpha"/>
<feOffset dy="18"/>
<feGaussianBlur stdDeviation="15"/>
<feComposite in2="hardAlpha" operator="out"/>
<feColorMatrix type="matrix" values="0 0 0 0 0.266667 0 0 0 0 0.380392 0 0 0 0 0.94902 0 0 0 0.11 0"/>
<feBlend mode="normal" in2="BackgroundImageFix" result="effect1_dropShadow_2_807"/>
<feBlend mode="normal" in="SourceGraphic" in2="effect1_dropShadow_2_807" result="shape"/>
</filter>
</defs>
</svg>
