<svg width="121" height="121" viewBox="0 0 121 121" fill="none" xmlns="http://www.w3.org/2000/svg">
<g filter="url(#filter0_d_2_638)">
<rect x="30" y="12" width="61" height="61" rx="15" fill="white" shape-rendering="crispEdges"/>
<rect x="30.5" y="12.5" width="60" height="60" rx="14.5" stroke="#E0E0E9" stroke-linecap="round" shape-rendering="crispEdges"/>
<path fill-rule="evenodd" clip-rule="evenodd" d="M71.54 42.7614C71.54 41.9459 71.4668 41.1618 71.3309 40.4091H60.5V44.8575H66.6891C66.4225 46.295 65.6123 47.513 64.3943 48.3284V51.2139H68.1109C70.2855 49.2118 71.54 46.2636 71.54 42.7614Z" fill="#4285F4"/>
<path fill-rule="evenodd" clip-rule="evenodd" d="M60.4999 53.9998C63.6049 53.9998 66.2081 52.9701 68.1108 51.2137L64.3943 48.3282C63.3645 49.0182 62.0472 49.426 60.4999 49.426C57.5047 49.426 54.9695 47.403 54.0652 44.6848H50.2231V47.6644C52.1154 51.4228 56.0045 53.9998 60.4999 53.9998Z" fill="#34A853"/>
<path fill-rule="evenodd" clip-rule="evenodd" d="M54.0652 44.6851C53.8352 43.9951 53.7045 43.258 53.7045 42.5001C53.7045 41.7421 53.8352 41.0051 54.0652 40.3151V37.3355H50.2232C49.4443 38.888 49 40.6444 49 42.5001C49 44.3557 49.4443 46.1121 50.2232 47.6646L54.0652 44.6851Z" fill="#FBBC05"/>
<path fill-rule="evenodd" clip-rule="evenodd" d="M60.4999 35.5739C62.1883 35.5739 63.7043 36.1541 64.8961 37.2936L68.1945 33.9952C66.2029 32.1395 63.5997 31 60.4999 31C56.0045 31 52.1154 33.577 50.2231 37.3355L54.0652 40.315C54.9695 37.5968 57.5047 35.5739 60.4999 35.5739Z" fill="#EA4335"/>
</g>
<defs>
<filter id="filter0_d_2_638" x="0" y="0" width="121" height="121" filterUnits="userSpaceOnUse" color-interpolation-filters="sRGB">
<feFlood flood-opacity="0" result="BackgroundImageFix"/>
<feColorMatrix in="SourceAlpha" type="matrix" values="0 0 0 0 0 0 0 0 0 0 0 0 0 0 0 0 0 0 127 0" result="hardAlpha"/>
<feOffset dy="18"/>
<feGaussianBlur stdDeviation="15"/>
<feComposite in2="hardAlpha" operator="out"/>
<feColorMatrix type="matrix" values="0 0 0 0 0.266667 0 0 0 0 0.380392 0 0 0 0 0.94902 0 0 0 0.11 0"/>
<feBlend mode="normal" in2="BackgroundImageFix" result="effect1_dropShadow_2_638"/>
<feBlend mode="normal" in="SourceGraphic" in2="effect1_dropShadow_2_638" result="shape"/>
</filter>
</defs>
</svg>
